# OBJ generated by ONSHAPE BY PTC INC, 1.215 Units = meters
mtllib Red Triangle.mtl
g Part 1
v -0.01905 -0.01143 0.00635 
v 0.01905 -0.01143 0.00635 
v 1.56125e-17 0.0215656 0.00635 
v 1.56125e-17 0.0215656 0 
v -0.01905 -0.01143 0 
v 0.01905 -0.01143 0 
vn 0 0 1 
vn -0.866025 0.5 0 
vn 0 -1 0 
vn 0.866025 0.5 0 
vn 0 0 -1 
usemtl 0.615686_0.811765_0.929412_0.000000_0.000000
o mesh0
f 1//1 2//1 3//1 
o mesh1
f 3//2 4//2 5//2 
f 5//2 1//2 3//2 
o mesh2
f 1//3 5//3 6//3 
f 6//3 2//3 1//3 
o mesh3
f 2//4 6//4 4//4 
f 4//4 3//4 2//4 
o mesh4
f 4//5 6//5 5//5 
