# OBJ generated by ONSHAPE BY PTC INC, 1.215 Units = meters
mtllib Star Yellow.mtl
g Part 1
v 0.0129954 0.0105292 0.00635 
v 0.0129954 0.0105292 0 
v 1.9082e-17 0.0381 0 
v 1.9082e-17 0.0381 0.00635 
v -0.0129954 0.0105292 0 
v -0.0129954 0.0105292 0.00635 
v -0.0434754 0.0105292 0 
v -0.0434754 0.0105292 0.00635 
v -0.0185076 -0.00695343 0 
v -0.0185076 -0.00695343 0.00635 
v -0.0263965 -0.0363948 0 
v -0.0263965 -0.0363948 0.00635 
v 5.20417e-18 -0.0211548 0 
v 5.20417e-18 -0.0211548 0.00635 
v 0.0263965 -0.0363948 0 
v 0.0263965 -0.0363948 0.00635 
v 0.0185076 -0.00695343 0.00635 
v 0.0434754 0.0105292 0.00635 
v 0.0185076 -0.00695343 0 
v 0.0434754 0.0105292 0 
vn 0.904554 0.426358 0 
vn -0.904554 0.426358 0 
vn 5.69135e-17 1 0 
vn -0.573576 -0.819152 0 
vn -0.965926 0.258819 0 
vn 0.5 -0.866025 0 
vn -0.5 -0.866025 0 
vn 0 0 1 
vn 0 0 -1 
vn 0.965926 0.258819 0 
vn 0.573576 -0.819152 0 
vn -5.69135e-17 1 0 
usemtl 0.615686_0.811765_0.929412_0.000000_0.000000
o mesh0
f 1//1 2//1 3//1 
f 3//1 4//1 1//1 
o mesh1
f 4//2 3//2 5//2 
f 5//2 6//2 4//2 
o mesh2
f 6//3 5//3 7//3 
f 7//3 8//3 6//3 
o mesh3
f 8//4 7//4 9//4 
f 9//4 10//4 8//4 
o mesh4
f 10//5 9//5 11//5 
f 11//5 12//5 10//5 
o mesh5
f 12//6 11//6 13//6 
f 13//6 14//6 12//6 
o mesh6
f 14//7 13//7 15//7 
f 15//7 16//7 14//7 
o mesh7
f 6//8 17//8 1//8 
f 10//8 12//8 14//8 
f 1//8 4//8 6//8 
f 14//8 17//8 10//8 
f 17//8 18//8 1//8 
f 17//8 8//8 10//8 
f 14//8 16//8 17//8 
f 6//8 8//8 17//8 
o mesh8
f 9//9 19//9 13//9 
f 5//9 3//9 2//9 
f 19//9 15//9 13//9 
f 19//9 7//9 5//9 
f 13//9 11//9 9//9 
f 2//9 19//9 5//9 
f 2//9 20//9 19//9 
f 9//9 7//9 19//9 
o mesh9
f 16//10 15//10 19//10 
f 19//10 17//10 16//10 
o mesh10
f 17//11 19//11 20//11 
f 20//11 18//11 17//11 
o mesh11
f 18//12 20//12 2//12 
f 2//12 1//12 18//12 
