# OBJ generated by ONSHAPE BY PTC INC, 1.216 Units = meters
mtllib Semi Circle.mtl
g Part 1
v -0.0550095 -0.15589 0.01016 
v -0.0550095 -0.15589 0 
v 0.0456848 -0.15589 0 
v 0.0456848 -0.15589 0.01016 
v -0.0550095 -0.0536238 0.01016 
v -0.0550095 -0.0536238 0 
v -0.0320288 -0.0536238 0.01016 
v -0.0320288 -0.0536238 0 
v -0.0340023 -0.0515243 0.01016 
v -0.0340023 -0.0515243 0 
v -0.0398196 -0.0446971 0.01016 
v -0.0398196 -0.0446971 0 
v -0.0451992 -0.0373787 0.01016 
v -0.0451992 -0.0373787 0 
v -0.0500821 -0.0296495 0.01016 
v -0.0500821 -0.0296495 0 
v -0.0544147 -0.0215946 0.01016 
v -0.0544147 -0.0215946 0 
v -0.0581493 -0.0133023 0.01016 
v -0.0581493 -0.0133023 0 
v -0.0612449 -0.00486381 0.01016 
v -0.0612449 -0.00486381 0 
v -0.0636674 0.00362811 0.01016 
v -0.0636674 0.00362811 0 
v -0.0653903 0.0120802 0.01016 
v -0.0653903 0.0120802 0 
v -0.0663946 0.0203994 0.01016 
v -0.0663946 0.0203994 0 
v -0.0666693 0.0284946 0.01016 
v -0.0666693 0.0284946 0 
v -0.0662113 0.0362765 0.01016 
v -0.0662113 0.0362765 0 
v -0.0650257 0.0436599 0.01016 
v -0.0650257 0.0436599 0 
v -0.0632225 0.0502751 0.01016 
v -0.0632225 0.0502751 0 
v -0.0609917 0.0559369 0.01016 
v -0.0609917 0.0559369 0 
v -0.0584402 0.060784 0.01016 
v -0.0584402 0.060784 0 
v -0.0556361 0.064938 0.01016 
v -0.0556361 0.064938 0 
v -0.0526176 0.0684997 0.01016 
v -0.0526176 0.0684997 0 
v -0.0494006 0.0715482 0.01016 
v -0.0494006 0.0715482 0 
v -0.0459838 0.0741416 0.01016 
v -0.0459838 0.0741416 0 
v -0.0423516 0.0763187 0.01016 
v -0.0423516 0.0763187 0 
v -0.0384769 0.0780991 0.01016 
v -0.0384769 0.0780991 0 
v -0.0343215 0.0794829 0.01016 
v -0.0343215 0.0794829 0 
v -0.0298372 0.080449 0.01016 
v -0.0298372 0.080449 0 
v -0.0249662 0.0809522 0.01016 
v -0.0249662 0.0809522 0 
v -0.0196423 0.0809187 0.01016 
v -0.0196423 0.0809187 0 
v 0.0456848 0.211784 0 
v -0.0196423 0.211784 0 
v -0.0196423 0.211784 0.01016 
v 0.0456848 0.211784 0.01016 
v 0.0456848 -0.15335 0.00254 
v 0.0456848 0.209244 0.00254 
v 0.0456848 0.209244 0.01016 
v 0.0456848 -0.15335 0.01016 
v -0.0524695 -0.15335 0.01016 
v -0.0524695 -0.15335 0.00254 
v -0.0171023 0.209244 0.00254 
v -0.0171023 0.209244 0.01016 
v -0.0524695 -0.0561638 0.00254 
v -0.0524695 -0.0561638 0.01016 
v -0.049826 -0.0249303 0.01016 
v -0.0472157 -0.029508 0.01016 
v -0.0444201 -0.0339737 0.01016 
v -0.052239 -0.0202633 0.01016 
v -0.0544441 -0.0155304 0.01016 
v -0.041453 -0.0383056 0.01016 
v -0.0383294 -0.0424828 0.01016 
v -0.0564329 -0.0107551 0.01016 
v -0.0581985 -0.00596058 0.01016 
v -0.0350656 -0.0464858 0.01016 
v -0.0316788 -0.0502969 0.01016 
v -0.0597359 -0.0011699 0.01016 
v -0.0258262 -0.0561638 0.01016 
v -0.0281868 -0.0539 0.01016 
v -0.0621165 0.00831188 0.01016 
v -0.0610423 0.0035947 0.01016 
v -0.0629591 0.0129615 0.01016 
v -0.0635723 0.0175247 0.01016 
v -0.0639599 0.0219844 0.01016 
v -0.0641269 0.0263247 0.01016 
v -0.0640796 0.0305319 0.01016 
v -0.0633715 0.0385 0.01016 
v -0.0638252 0.0345938 0.01016 
v -0.0619005 0.0458122 0.01016 
v -0.062727 0.0422417 0.01016 
v -0.0609008 0.0492057 0.01016 
v -0.0597367 0.0524185 0.01016 
v -0.0584168 0.0554476 0.01016 
v -0.0569489 0.0582915 0.01016 
v -0.0235824 0.0784593 0.01016 
v -0.0553407 0.0609494 0.01016 
v -0.0203785 0.0784148 0.01016 
v -0.0535986 0.0634212 0.01016 
v -0.0517286 0.0657072 0.01016 
v -0.0266854 0.0782855 0.01016 
v -0.0296843 0.0779005 0.01016 
v -0.0325765 0.0773107 0.01016 
v -0.0497356 0.0678081 0.01016 
v -0.0476235 0.0697244 0.01016 
v -0.0453955 0.0714562 0.01016 
v -0.0353606 0.0765217 0.01016 
v -0.0380354 0.0755384 0.01016 
v -0.0406001 0.0743646 0.01016 
v -0.0430538 0.0730033 0.01016 
v -0.0171023 0.0781477 0.01016 
v -0.0380354 0.0755384 0.00254 
v -0.0406001 0.0743646 0.00254 
v -0.0430538 0.0730033 0.00254 
v -0.0453955 0.0714562 0.00254 
v -0.0353606 0.0765217 0.00254 
v -0.0476235 0.0697244 0.00254 
v -0.0325765 0.0773107 0.00254 
v -0.0497356 0.0678081 0.00254 
v -0.0296843 0.0779005 0.00254 
v -0.0517286 0.0657072 0.00254 
v -0.0266854 0.0782855 0.00254 
v -0.0535986 0.0634212 0.00254 
v -0.0235824 0.0784593 0.00254 
v -0.0553407 0.0609494 0.00254 
v -0.0203785 0.0784148 0.00254 
v -0.0569489 0.0582915 0.00254 
v -0.0584168 0.0554476 0.00254 
v -0.0171023 0.0781477 0.00254 
v -0.0597367 0.0524185 0.00254 
v -0.0609008 0.0492057 0.00254 
v -0.0619005 0.0458122 0.00254 
v -0.062727 0.0422417 0.00254 
v -0.0633715 0.0385 0.00254 
v -0.0638252 0.0345938 0.00254 
v -0.0640796 0.0305319 0.00254 
v -0.0641269 0.0263247 0.00254 
v -0.0639599 0.0219844 0.00254 
v -0.0635723 0.0175247 0.00254 
v -0.0629591 0.0129615 0.00254 
v -0.0621165 0.00831188 0.00254 
v -0.0350656 -0.0464858 0.00254 
v -0.0316788 -0.0502969 0.00254 
v -0.0610423 0.0035947 0.00254 
v -0.0383294 -0.0424828 0.00254 
v -0.0597359 -0.0011699 0.00254 
v -0.041453 -0.0383056 0.00254 
v -0.0581985 -0.00596058 0.00254 
v -0.0444201 -0.0339737 0.00254 
v -0.0564329 -0.0107551 0.00254 
v -0.0472157 -0.029508 0.00254 
v -0.0544441 -0.0155304 0.00254 
v -0.049826 -0.0249303 0.00254 
v -0.052239 -0.0202633 0.00254 
v -0.0281868 -0.0539 0.00254 
v -0.0258262 -0.0561638 0.00254 
vn 2.05057e-16 -1 0 
vn -1 0 0 
vn -3.01945e-16 1 0 
vn -0.736856 -0.676049 0 
vn -0.72028 -0.693683 0 
vn -0.784092 -0.620644 0 
vn -0.826153 -0.563445 0 
vn -0.863586 -0.504202 0 
vn -0.896751 -0.442535 0 
vn -0.925823 -0.377958 0 
vn -0.950774 -0.309886 0 
vn -0.971352 -0.237646 0 
vn -0.987036 -0.160501 0 
vn -0.996978 -0.0776813 0 
vn -0.999933 0.011545 0 
vn -0.994178 0.107746 0 
vn -0.977461 0.211118 0 
vn -0.948667 0.316276 0 
vn -0.908597 0.417675 0 
vn -0.857725 0.514108 0 
vn -0.796658 0.604431 0 
vn -0.72612 0.687568 0 
vn -0.646951 0.762531 0 
vn -0.560092 0.828431 0 
vn -0.466574 0.884482 0 
vn -0.36751 0.93002 0 
vn -0.264077 0.964502 0 
vn -0.157505 0.987518 0 
vn -0.0490612 0.998796 0 
vn 0.0599662 0.9982 0 
vn -0.72028 -0.693683 0 
vn 0 0 -1 
vn -2.35873e-16 1 0 
vn -1 0 0 
vn 1 0 0 
vn -2.05057e-16 1 0 
vn 2.35873e-16 -1 0 
vn 1 0 0 
vn 0 0 1 
vn -0.0478935 -0.998852 0 
vn -0.113834 -0.9935 0 
vn 0.0208647 -0.999782 0 
vn 0.0915393 -0.995801 0 
vn 0.163576 -0.986531 0 
vn 0.236316 -0.971676 0 
vn 0.309008 -0.951059 0 
vn 0.380843 -0.92464 0 
vn 0.450983 -0.892533 0 
vn 0.518607 -0.855013 0 
vn 0.582954 -0.812505 0 
vn 0.643361 -0.765563 0 
vn 0.699293 -0.714835 0 
vn 0.75036 -0.66103 0 
vn 0.796322 -0.604872 0 
vn 0.837086 -0.547072 0 
vn 0.872681 -0.48829 0 
vn 0.903247 -0.429121 0 
vn 0.929001 -0.370077 0 
vn 0.950218 -0.311586 0 
vn 0.967207 -0.253988 0 
vn 0.980293 -0.197547 0 
vn 0.989802 -0.142451 0 
vn 0.996047 -0.0888293 0 
vn 0.999324 -0.0367559 0 
vn 0.999906 0.0137366 0 
vn 0.998036 0.0626503 0 
vn 0.99393 0.110014 0 
vn 0.987777 0.155876 0 
vn 0.979735 0.200298 0 
vn 0.969937 0.243354 0 
vn 0.958491 0.285122 0 
vn 0.945479 0.325682 0 
vn 0.930963 0.365114 0 
vn 0.91498 0.403498 0 
vn 0.897552 0.440908 0 
vn 0.878679 0.477413 0 
vn 0.858344 0.513075 0 
vn 0.836513 0.547946 0 
vn 0.813137 0.582072 0 
vn 0.78815 0.615484 0 
vn 0.761471 0.648199 0 
vn 0.733006 0.680222 0 
vn 0.702648 0.711538 0 
vn 0.681452 0.731863 0 
vn -0.113834 -0.9935 0 
vn 3.01945e-16 -1 0 
vn 1 0 0 
usemtl 0.615686_0.811765_0.929412_0.000000_0.000000
o mesh0
f 1//1 2//1 3//1 
f 3//1 4//1 1//1 
o mesh1
f 5//2 6//2 2//2 
f 2//2 1//2 5//2 
o mesh2
f 7//3 8//3 6//3 
f 6//3 5//3 7//3 
o mesh3
f 9//4 10//4 8//5 
f 11//6 12//6 10//4 
f 13//7 14//7 12//6 
f 15//8 16//8 14//7 
f 17//9 18//9 16//8 
f 19//10 20//10 18//9 
f 21//11 22//11 20//10 
f 23//12 24//12 22//11 
f 25//13 26//13 24//12 
f 27//14 28//14 26//13 
f 29//15 30//15 28//14 
f 31//16 32//16 30//15 
f 33//17 34//17 32//16 
f 35//18 36//18 34//17 
f 37//19 38//19 36//18 
f 39//20 40//20 38//19 
f 41//21 42//21 40//20 
f 43//22 44//22 42//21 
f 45//23 46//23 44//22 
f 47//24 48//24 46//23 
f 49//25 50//25 48//24 
f 51//26 52//26 50//25 
f 53//27 54//27 52//26 
f 55//28 56//28 54//27 
f 57//29 58//29 56//28 
f 59//30 60//30 58//29 
f 58//29 57//29 59//30 
f 56//28 55//28 57//29 
f 54//27 53//27 55//28 
f 52//26 51//26 53//27 
f 50//25 49//25 51//26 
f 48//24 47//24 49//25 
f 46//23 45//23 47//24 
f 44//22 43//22 45//23 
f 42//21 41//21 43//22 
f 40//20 39//20 41//21 
f 38//19 37//19 39//20 
f 36//18 35//18 37//19 
f 34//17 33//17 35//18 
f 32//16 31//16 33//17 
f 30//15 29//15 31//16 
f 28//14 27//14 29//15 
f 26//13 25//13 27//14 
f 24//12 23//12 25//13 
f 22//11 21//11 23//12 
f 20//10 19//10 21//11 
f 18//9 17//9 19//10 
f 16//8 15//8 17//9 
f 14//7 13//7 15//8 
f 12//6 11//6 13//7 
f 10//4 9//4 11//6 
f 8//5 7//31 9//4 
o mesh4
f 52//32 46//32 48//32 
f 48//32 50//32 52//32 
f 54//32 44//32 46//32 
f 52//32 54//32 46//32 
f 56//32 42//32 44//32 
f 54//32 56//32 44//32 
f 58//32 40//32 42//32 
f 56//32 58//32 42//32 
f 60//32 38//32 40//32 
f 60//32 36//32 38//32 
f 60//32 34//32 36//32 
f 60//32 32//32 34//32 
f 60//32 30//32 32//32 
f 60//32 28//32 30//32 
f 60//32 26//32 28//32 
f 60//32 24//32 26//32 
f 60//32 22//32 24//32 
f 60//32 20//32 22//32 
f 60//32 18//32 20//32 
f 60//32 10//32 12//32 
f 60//32 16//32 18//32 
f 12//32 14//32 60//32 
f 14//32 16//32 60//32 
f 60//32 8//32 10//32 
f 61//32 3//32 60//32 
f 60//32 3//32 8//32 
f 58//32 60//32 40//32 
f 2//32 6//32 8//32 
f 8//32 3//32 2//32 
f 60//32 62//32 61//32 
o mesh5
f 62//33 63//33 64//33 
f 64//33 61//33 62//33 
o mesh6
f 63//34 62//34 60//34 
f 60//34 59//34 63//34 
o mesh7
f 4//35 3//35 65//35 
f 3//35 61//35 66//35 
f 66//35 65//35 3//35 
f 64//35 67//35 66//35 
f 66//35 61//35 64//35 
f 65//35 68//35 4//35 
o mesh8
f 69//36 68//36 65//36 
f 65//36 70//36 69//36 
o mesh9
f 71//37 66//37 67//37 
f 67//37 72//37 71//37 
o mesh10
f 69//38 70//38 73//38 
f 73//38 74//38 69//38 
o mesh11
f 17//39 15//39 75//39 
f 15//39 76//39 75//39 
f 15//39 13//39 77//39 
f 17//39 78//39 79//39 
f 77//39 76//39 15//39 
f 75//39 78//39 17//39 
f 13//39 80//39 77//39 
f 79//39 19//39 17//39 
f 11//39 81//39 80//39 
f 19//39 82//39 83//39 
f 80//39 13//39 11//39 
f 79//39 82//39 19//39 
f 11//39 84//39 81//39 
f 83//39 21//39 19//39 
f 9//39 85//39 84//39 
f 23//39 21//39 86//39 
f 84//39 11//39 9//39 
f 85//39 9//39 7//39 
f 83//39 86//39 21//39 
f 7//39 87//39 88//39 
f 7//39 88//39 85//39 
f 25//39 23//39 89//39 
f 86//39 90//39 23//39 
f 25//39 91//39 92//39 
f 90//39 89//39 23//39 
f 89//39 91//39 25//39 
f 27//39 93//39 94//39 
f 92//39 27//39 25//39 
f 92//39 93//39 27//39 
f 31//39 29//39 95//39 
f 94//39 29//39 27//39 
f 94//39 95//39 29//39 
f 33//39 31//39 96//39 
f 95//39 97//39 31//39 
f 97//39 96//39 31//39 
f 35//39 33//39 98//39 
f 96//39 99//39 33//39 
f 35//39 100//39 101//39 
f 99//39 98//39 33//39 
f 98//39 100//39 35//39 
f 37//39 102//39 103//39 
f 101//39 37//39 35//39 
f 101//39 102//39 37//39 
f 59//39 57//39 104//39 
f 41//39 39//39 105//39 
f 103//39 39//39 37//39 
f 104//39 106//39 59//39 
f 41//39 107//39 108//39 
f 103//39 105//39 39//39 
f 57//39 109//39 104//39 
f 55//39 110//39 109//39 
f 105//39 107//39 41//39 
f 109//39 57//39 55//39 
f 55//39 53//39 111//39 
f 45//39 43//39 112//39 
f 108//39 43//39 41//39 
f 111//39 110//39 55//39 
f 45//39 113//39 114//39 
f 108//39 112//39 43//39 
f 53//39 115//39 111//39 
f 51//39 116//39 115//39 
f 112//39 113//39 45//39 
f 115//39 53//39 51//39 
f 51//39 49//39 117//39 
f 49//39 47//39 118//39 
f 114//39 47//39 45//39 
f 74//39 87//39 7//39 
f 1//39 69//39 74//39 
f 117//39 116//39 51//39 
f 114//39 118//39 47//39 
f 64//39 63//39 72//39 
f 72//39 63//39 59//39 
f 74//39 5//39 1//39 
f 4//39 68//39 69//39 
f 118//39 117//39 49//39 
f 59//39 119//39 72//39 
f 69//39 1//39 4//39 
f 72//39 67//39 64//39 
f 106//39 119//39 59//39 
f 7//39 5//39 74//39 
o mesh12
f 120//39 121//39 122//39 
f 123//39 124//39 120//39 
f 122//39 123//39 120//39 
f 125//39 126//39 124//39 
f 123//39 125//39 124//39 
f 127//39 128//39 126//39 
f 125//39 127//39 126//39 
f 129//39 130//39 128//39 
f 127//39 129//39 128//39 
f 131//39 132//39 130//39 
f 129//39 131//39 130//39 
f 133//39 134//39 132//39 
f 131//39 133//39 132//39 
f 133//39 135//39 134//39 
f 136//39 137//39 134//39 
f 135//39 136//39 134//39 
f 136//39 138//39 137//39 
f 138//39 139//39 137//39 
f 139//39 140//39 137//39 
f 140//39 141//39 137//39 
f 141//39 142//39 137//39 
f 142//39 143//39 137//39 
f 143//39 144//39 137//39 
f 144//39 145//39 137//39 
f 145//39 146//39 137//39 
f 146//39 147//39 137//39 
f 147//39 148//39 137//39 
f 148//39 149//39 137//39 
f 137//39 150//39 151//39 
f 149//39 152//39 137//39 
f 137//39 153//39 150//39 
f 152//39 154//39 137//39 
f 137//39 155//39 153//39 
f 154//39 156//39 137//39 
f 137//39 157//39 155//39 
f 156//39 158//39 137//39 
f 137//39 159//39 157//39 
f 158//39 160//39 137//39 
f 137//39 161//39 159//39 
f 160//39 162//39 137//39 
f 162//39 161//39 137//39 
f 151//39 163//39 137//39 
f 163//39 164//39 137//39 
f 66//39 71//39 137//39 
f 70//39 65//39 164//39 
f 137//39 65//39 66//39 
f 164//39 65//39 137//39 
f 164//39 73//39 70//39 
o mesh13
f 106//40 134//40 137//41 
f 104//42 132//42 134//40 
f 109//43 130//43 132//42 
f 110//44 128//44 130//43 
f 111//45 126//45 128//44 
f 115//46 124//46 126//45 
f 116//47 120//47 124//46 
f 117//48 121//48 120//47 
f 118//49 122//49 121//48 
f 114//50 123//50 122//49 
f 113//51 125//51 123//50 
f 112//52 127//52 125//51 
f 108//53 129//53 127//52 
f 107//54 131//54 129//53 
f 105//55 133//55 131//54 
f 103//56 135//56 133//55 
f 102//57 136//57 135//56 
f 101//58 138//58 136//57 
f 100//59 139//59 138//58 
f 98//60 140//60 139//59 
f 99//61 141//61 140//60 
f 96//62 142//62 141//61 
f 97//63 143//63 142//62 
f 95//64 144//64 143//63 
f 94//65 145//65 144//64 
f 93//66 146//66 145//65 
f 92//67 147//67 146//66 
f 91//68 148//68 147//67 
f 89//69 149//69 148//68 
f 90//70 152//70 149//69 
f 86//71 154//71 152//70 
f 83//72 156//72 154//71 
f 82//73 158//73 156//72 
f 79//74 160//74 158//73 
f 78//75 162//75 160//74 
f 75//76 161//76 162//75 
f 76//77 159//77 161//76 
f 77//78 157//78 159//77 
f 80//79 155//79 157//78 
f 81//80 153//80 155//79 
f 84//81 150//81 153//80 
f 85//82 151//82 150//81 
f 88//83 163//83 151//82 
f 87//84 164//84 163//83 
f 163//83 88//83 87//84 
f 151//82 85//82 88//83 
f 150//81 84//81 85//82 
f 153//80 81//80 84//81 
f 155//79 80//79 81//80 
f 157//78 77//78 80//79 
f 159//77 76//77 77//78 
f 161//76 75//76 76//77 
f 162//75 78//75 75//76 
f 160//74 79//74 78//75 
f 158//73 82//73 79//74 
f 156//72 83//72 82//73 
f 154//71 86//71 83//72 
f 152//70 90//70 86//71 
f 149//69 89//69 90//70 
f 148//68 91//68 89//69 
f 147//67 92//67 91//68 
f 146//66 93//66 92//67 
f 145//65 94//65 93//66 
f 144//64 95//64 94//65 
f 143//63 97//63 95//64 
f 142//62 96//62 97//63 
f 141//61 99//61 96//62 
f 140//60 98//60 99//61 
f 139//59 100//59 98//60 
f 138//58 101//58 100//59 
f 136//57 102//57 101//58 
f 135//56 103//56 102//57 
f 133//55 105//55 103//56 
f 131//54 107//54 105//55 
f 129//53 108//53 107//54 
f 127//52 112//52 108//53 
f 125//51 113//51 112//52 
f 123//50 114//50 113//51 
f 122//49 118//49 114//50 
f 121//48 117//48 118//49 
f 120//47 116//47 117//48 
f 124//46 115//46 116//47 
f 126//45 111//45 115//46 
f 128//44 110//44 111//45 
f 130//43 109//43 110//44 
f 132//42 104//42 109//43 
f 134//40 106//40 104//42 
f 137//41 119//85 106//40 
o mesh14
f 74//86 73//86 164//86 
f 164//86 87//86 74//86 
o mesh15
f 119//87 137//87 71//87 
f 71//87 72//87 119//87 
